<?xml version="1.0" encoding="utf-8"?>
<!-- Generator: Adobe Illustrator 15.0.0, SVG Export Plug-In . SVG Version: 6.00 Build 0)  -->
<!DOCTYPE svg PUBLIC "-//W3C//DTD SVG 1.1//EN" "http://www.w3.org/Graphics/SVG/1.1/DTD/svg11.dtd">
<svg version="1.1" id="Capa_1" xmlns="http://www.w3.org/2000/svg" xmlns:xlink="http://www.w3.org/1999/xlink" x="0px" y="0px"
	 width="512px" height="512px" viewBox="0 0 512 512" enable-background="new 0 0 512 512" xml:space="preserve">
<g>
	<path fill="#1A171B" d="M7.417,322.108v133.271h499.21V322.108H7.417z M491.079,439.275H23.521l1.111-100.509h14.438v42.203h17.77
		v-42.758h23.877v25.543h17.77v-24.988h24.433v42.758h18.88v-42.202h24.433v26.099h17.214v-27.209h24.433v44.979h17.77v-43.313
		h21.101v24.433h19.991v-24.988h23.877v42.758h17.77v-43.313h23.878v26.654h17.214v-26.654h24.434v42.758h18.324v-42.202h22.768
		v24.988h20.546v-25.544h23.322v44.979h17.214v-43.313h14.993V439.275z"/>
	<polygon fill="#1A171B" points="221.574,282.313 238.789,282.313 238.789,307.857 221.019,307.857 	"/>
	<path fill="#1A171B" d="M254.892,4.111c-7.219,0-76.075,76.63-76.075,82.739s24.433,85.516,24.433,85.516l-14.993,1.11
		l-1.111,133.826c0,0,16.659,1.11,16.659,0s0-74.41,0-74.41h99.953v72.744h17.77V175.142h-15.548c0,0,13.327-63.859,25.543-86.071
		C323.749,75.188,262.111,4.111,254.892,4.111z M304.313,214.012h-99.398v-24.433l99.398,1.111V214.012z M296.539,132.384
		c-2.776,10.551-7.219,39.981-7.219,39.981h-69.412c0,0-2.777-27.209-8.33-44.424c-5.414-16.787-14.438-37.205-14.438-37.205
		l48.866-53.864v52.753c0,0-16.104,9.996-16.104,21.102c0,11.105,6.664,29.986,23.877,29.986c17.215,0,27.765-14.438,27.765-27.209
		c0-12.772-17.769-24.988-17.769-24.988V36.318l47.199,53.864C310.977,90.182,299.315,121.833,296.539,132.384z"/>
	<polygon fill="#1A171B" points="219.909,265.1 238.789,265.1 238.789,245.664 221.019,245.664 	"/>
	<path fill="#1A171B" d="M489.782,122.389C489.227,95.734,433.142,3,423.702,3c-9.44,0-68.856,91.068-70.522,124.941
		s22.211,53.309,27.209,65.525c-5.553,13.882-8.329,109.949-8.329,111.615c0,1.665,16.104,1.11,16.104,1.11l1.11-15.549h67.19
		v15.549l17.215,1.11L464.794,191.8C464.794,191.8,490.337,149.042,489.782,122.389z M422.591,29.099
		c3.888,1.11,43.313,66.635,43.313,69.412s-12.217,8.885-17.77,8.885s-18.88-12.216-26.654-12.216s-23.878,14.438-27.765,14.438
		s-12.217-9.44-14.438-12.216C377.057,94.624,422.591,29.099,422.591,29.099z M391.495,270.652l4.997-72.744l51.087,0.555
		l6.664,73.299L391.495,270.652z M448.135,180.694c-1.666,0-31.088,0-50.532,0c-30.541,0-23.322-61.638-23.322-61.638
		s10.551,7.219,21.102,7.219s28.32-13.327,28.32-13.327s12.771,11.661,23.322,12.771c10.551,1.111,13.882-1.666,24.433-6.664
		C477.565,151.819,449.801,180.694,448.135,180.694z"/>
	<polygon fill="#1A171B" points="402.045,253.994 420.926,255.104 424.257,213.457 409.264,211.791 	"/>
	<path fill="#1A171B" d="M96.633,36.873c-8.885-1.666-58.861,90.513-58.861,90.513v178.25l16.104,1.11V139.047h17.769v168.254
		h14.993V139.603h17.77v167.699h17.77V139.047h14.438v168.254h18.88V128.497C155.494,128.497,105.518,38.539,96.633,36.873z
		 M130.506,122.944l-69.412-0.555l14.438-23.878l41.092-0.555L130.506,122.944z M86.083,82.407l9.44-20.546l9.995,19.436
		L86.083,82.407z"/>
	<polygon fill="#1A171B" points="37.772,474.445 54.986,474.445 54.986,488.328 69.979,488.328 69.979,474.445 88.859,474.445 
		88.859,488.328 103.296,488.328 103.296,473.891 121.066,473.891 121.066,489.994 137.725,489.994 137.725,473.335 
		154.384,473.335 156.05,500.545 148.275,508.874 41.659,507.764 37.216,502.766 	"/>
	<polygon fill="#1A171B" points="202.694,474.445 219.909,474.445 222.685,489.994 287.1,490.549 289.876,475.001 308.2,475.557 
		306.534,501.655 300.427,507.208 211.579,508.318 202.139,501.1 	"/>
	<path fill="#1A171B" d="M387.607,473.335c3.055-0.277,18.88-0.556,18.88-0.556l0.556,17.215l31.651,1.11
		c0,0,1.111-13.883,1.389-18.325c9.44-0.277,18.047,0,18.047,0s0.833,32.763-6.386,34.429s-56.918,1.666-59.694,0.556
		C389.273,506.652,387.607,473.335,387.607,473.335z"/>
</g>
</svg>
