<svg id="Layer_1" enable-background="new 0 0 512 512" height="512" viewBox="0 0 512 512" width="512" xmlns="http://www.w3.org/2000/svg"><g><path d="m436 0h-360c-5.523 0-10 4.477-10 10v492c0 5.523 4.477 10 10 10h280c2.652 0 5.196-1.054 7.071-2.929l80-80c1.875-1.875 2.929-4.419 2.929-7.071v-412c0-5.523-4.477-10-10-10zm-84.142 492h-265.858v-472h340v397.858l-4.142 4.142h-65.858v65.858z"/><path d="m116 50h280v40h-280z"/><path d="m136.817 300h259.183c5.523 0 10-4.477 10-10v-160c0-5.523-4.477-10-10-10h-280c-5.523 0-10 4.477-10 10v160c0 5.523 4.477 10 10 10h19.178c.538.049 1.086.049 1.639 0zm23.325-20 55.858-55.858 12.929 12.929c3.905 3.905 10.237 3.905 14.143 0l32.928-32.929 75.857 75.858zm-34.142-140h260v140h-5.857l-97.071-97.071c-3.905-3.905-10.237-3.905-14.143 0l-32.929 32.929-12.929-12.929c-3.905-3.905-10.237-3.905-14.143 0l-77.071 77.071h-5.857z"/><path d="m346 200c11.046 0 20-8.954 20-20s-8.954-20-20-20c-26.522 1.049-26.53 38.947 0 40z"/><path d="m146 320c-13.258.523-13.268 19.472 0 20h220c13.258-.523 13.268-19.472 0-20z"/><path d="m366 360h-220c-13.258.523-13.268 19.472 0 20h220c13.258-.523 13.268-19.472 0-20z"/><path d="m326 400h-140c-13.258.523-13.268 19.472 0 20h140c13.258-.523 13.268-19.472 0-20z"/></g></svg>