<?xml version="1.0" encoding="utf-8"?>
<!-- Generator: Adobe Illustrator 15.0.0, SVG Export Plug-In . SVG Version: 6.00 Build 0)  -->
<!DOCTYPE svg PUBLIC "-//W3C//DTD SVG 1.1//EN" "http://www.w3.org/Graphics/SVG/1.1/DTD/svg11.dtd">
<svg version="1.1" id="Vrstva_1" xmlns="http://www.w3.org/2000/svg" xmlns:xlink="http://www.w3.org/1999/xlink" x="0px" y="0px"
	 width="448px" height="448px" viewBox="0 0 448 448" enable-background="new 0 0 448 448" xml:space="preserve">
<path fill="#1A171B" d="M428.713,345.363l14.026-270.855c0,0-2.902-30.955-113.18-31.438
	c-110.277-0.484-120.434,31.438-120.434,31.438l10.641,181.86l-39.178,4.354c0,0,0.968-62.878,1.935-81.741
	c0.967-18.863-8.223-51.753-11.608-60.943c-3.386-9.189-21.765-46.433-21.765-46.433s1.451-41.596,1.451-47.883
	S135.607,7.761,135.607,7.761S62.09,7.277,53.383,7.277c-8.706,0-17.412,13.543-17.412,13.543s0.967,29.02,0.967,46.916
	S5.984,146.091,5.984,146.091S5.5,345.848,5.5,383.09c0,37.243,42.08,45.949,42.08,45.949s74.969,1.935,105.44,1.935
	C169.465,441.131,247.819,445,247.819,445c154.775,0,152.356-43.53,152.356-43.53v-50.785L428.713,345.363z M320.854,59.998
	c41.596,0,99.153,8.706,99.153,12.092s-70.616,14.994-100.604,14.994c-29.987,0-87.061-10.641-87.061-14.51
	C232.342,68.704,320.854,59.998,320.854,59.998z M323.756,101.593c26.602,0,102.538-11.125,102.538-11.125v8.706
	c0,0-45.465,16.445-103.021,15.961c-57.558-0.484-96.251-13.059-96.251-13.059l-0.483-12.576
	C226.538,89.501,297.154,101.593,323.756,101.593z M209.126,272.813c48.367-0.967,64.328-4.353,64.328-4.353
	s20.314,32.406,34.341,32.406s41.596-21.282,41.596-21.282s32.89,7.739,32.89,16.445s-41.112,25.15-63.845,28.053
	s-71.583,5.805-71.583,5.805s-3.386-41.112-37.727-39.661c-34.341,1.45-58.041,16.444-58.041,16.444l-12.575-5.32
	C138.51,301.35,160.759,273.78,209.126,272.813z M292.801,270.878l35.309,3.386c0,0-6.288,12.092-18.863,11.608
	C296.67,285.389,292.801,270.878,292.801,270.878z M230.407,326.984l-62.877-10.157c0,0,5.804-13.06,36.275-9.674
	S230.407,326.984,230.407,326.984z M53.383,22.271h77.388c0,0,6.288,4.837,6.288,9.19s-2.902,33.374-2.902,33.374L52.9,63.867
	l-2.902-36.275L53.383,22.271z M33.553,120.94c10.641-23.216,21.766-39.178,21.766-39.178l78.354-0.483
	c0,0,29.021,50.302,30.472,63.844c1.451,13.543,1.935,28.537,1.935,28.537h-29.504c0,0-14.027-17.896-43.047-20.798
	c-29.021-2.902-44.014,22.249-44.014,22.249l-30.471-2.418C19.043,172.693,22.912,144.156,33.553,120.94z M164.628,219.609H129.32
	c0,0-9.673,20.798-34.34,21.281c-28.051,0.552-36.759-21.281-36.759-21.281s-33.374-1.935-34.824-0.968
	c-1.451,0.968-0.967-26.602-0.967-26.602l35.792-1.935c0,0,9.673-22.732,34.824-22.732s34.825,22.249,34.825,22.249l36.275,1.451
	L164.628,219.609z M124.967,415.013c0,0-65.779-0.968-81.74-1.935c-15.961-0.968-22.733-28.054-22.733-28.054l0.967-150.422
	l26.119-0.483c0,0,7.739,24.667,42.563,22.732s52.236-22.249,52.236-22.249h21.282c0,0,0,0,0,29.988
	c-34.824,10.157-41.596,30.471-41.596,30.471L124.967,415.013z M347.456,379.704c1.935,18.38,22.249,33.857,22.249,33.857
	s-25.151,11.124-111.245,15.478c-86.093,4.353-120.917-29.021-120.917-29.021l-0.484-15.961c0,0,22.732-14.511,22.732-28.053
	c0-13.543-22.249-22.249-22.249-22.249l1.451-11.125c0,0,30.472,19.347,127.206,21.282c47.872,0.956,112.752-18.285,117.275-20.156
	c0.075-0.087,0.154-0.158,0.257-0.158c0.094,0-0.026,0.064-0.257,0.158c-1.376,1.595,1.224,16.771,1.224,16.771
	S345.521,361.325,347.456,379.704z M384.698,399.535c0,0-20.313-2.419-21.281-19.831s19.83-20.313,19.83-20.313L384.698,399.535z
	 M324.724,258.786c-64.813-3.869-90.447-5.32-90.447-5.32s-8.222-132.042-6.287-132.042s66.746,9.673,94.799,9.673
	c28.054,0,103.022-10.641,103.022-10.641L414.202,335.69l-13.543-0.483l-0.483-39.661
	C400.176,295.546,389.535,262.656,324.724,258.786z"/>
<path fill="#1A171B" d="M326.174,174.144c0,0-17.412-31.922-64.328-25.635c-0.483,25.151,3.869,50.302,20.798,58.041
	c16.929,7.739,35.309,13.543,35.309,13.543l0.483,21.766l17.412-1.451l-1.451-20.314c0,0,66.263-5.804,55.622-71.583
	C337.299,145.124,326.174,174.144,326.174,174.144z M317.952,202.681c-1.935,0.967-38.694-7.255-40.146-40.628
	C322.788,166.889,317.952,202.681,317.952,202.681z M337.299,202.681c-1.451-6.771-1.935-37.243,38.21-40.145
	C375.509,201.229,337.843,205.228,337.299,202.681z"/>
<polygon fill="#1A171B" points="254.107,299.415 254.591,284.904 238.63,283.938 239.597,298.932 "/>
<polygon fill="#1A171B" points="282.16,298.932 269.101,298.932 267.166,313.925 281.677,313.441 "/>
<path fill="#1A171B" d="M383.731,323.599c-0.103,0-0.182,0.071-0.257,0.158C383.705,323.663,383.825,323.599,383.731,323.599z"/>
<path fill="#1A171B" d="M231.375,376.803c0,0-10.157,5.804-11.125,11.607c-0.967,5.805,5.805,10.641,12.575,11.608
	c6.771,0.968,12.092-3.386,12.092-11.608C244.917,380.188,231.375,376.803,231.375,376.803z"/>
</svg>
