<svg id="Capa_1" enable-background="new 0 0 512 512" height="512" viewBox="0 0 512 512" width="512" xmlns="http://www.w3.org/2000/svg"><g><path d="m371 452h-230c-8.284 0-15 6.716-15 15v30c0 8.284 6.716 15 15 15h230c8.284 0 15-6.716 15-15v-30c0-8.285-6.716-15-15-15z"/><path d="m497 223.5h-16.409c-3.829-50.267-26.854-96.985-65.82-132.86-12.897-11.874-27.082-22.117-42.253-30.64h52.063c6.192 17.459 22.865 30 42.42 30 24.814 0 45-20.187 45-45s-20.187-45-45.001-45c-19.555 0-36.228 12.542-42.42 30h-123.58v-15c0-8.284-6.716-15-15-15h-60c-8.284 0-15 6.716-15 15v15h-123.58c-6.192-17.458-22.865-30-42.42-30-24.813 0-45 20.187-45 45s20.187 45 45 45c19.555 0 36.228-12.541 42.42-30h52.063c-15.172 8.523-29.357 18.766-42.254 30.64-38.965 35.875-61.992 82.593-65.82 132.86h-16.409c-8.284 0-15 6.716-15 15v60c0 8.284 6.716 15 15 15h60c8.284 0 15-6.716 15-15v-60c0-8.284-6.716-15-15-15h-13.472c7.091-77.565 68.635-141.187 149.472-158.702v10.202c0 8.284 6.716 15 15 15h60c8.284 0 15-6.716 15-15v-10.202c80.837 17.516 142.381 81.137 149.472 158.702h-13.472c-8.284 0-15 6.716-15 15v60c0 8.284 6.716 15 15 15h60c8.284 0 15-6.716 15-15v-60c0-8.284-6.716-15-15-15z"/><circle cx="256" cy="321" r="15"/><path d="m271 145.335v133.245c17.459 6.192 30 22.865 30 42.42 0 24.814-20.186 45-45 45-24.813 0-45-20.186-45-45 0-19.555 12.542-36.228 30-42.42v-133.245l-112.352 163.157c-2.782 4.039-3.413 9.182-1.691 13.774l37.398 99.734h183.29l37.399-99.734c1.722-4.592 1.091-9.735-1.69-13.774z"/></g></svg>