<?xml version="1.0" encoding="utf-8"?>
<!-- Generator: Adobe Illustrator 15.0.0, SVG Export Plug-In . SVG Version: 6.00 Build 0)  -->
<!DOCTYPE svg PUBLIC "-//W3C//DTD SVG 1.1//EN" "http://www.w3.org/Graphics/SVG/1.1/DTD/svg11.dtd">
<svg version="1.1" id="Vrstva_1" xmlns="http://www.w3.org/2000/svg" xmlns:xlink="http://www.w3.org/1999/xlink" x="0px" y="0px"
	 width="448px" height="448px" viewBox="0 0 448 448" enable-background="new 0 0 448 448" xml:space="preserve">
<g>
	<g>
		<path d="M378.901,57.305H41.167c-18.619,0-33.773,15.146-33.773,33.773v202.64c0,18.627,15.155,33.775,33.773,33.775h143.537
			v16.887h-50.66c-4.667,0-8.444,3.776-8.444,8.442c0,4.668,3.777,8.444,8.444,8.444h151.98c4.668,0,8.444-3.776,8.444-8.444
			c0-4.666-3.776-8.442-8.444-8.442h-50.661v-16.887h143.538c18.619,0,33.773-15.146,33.773-33.775V91.078
			C412.675,72.451,397.521,57.305,378.901,57.305z M378.901,293.718H41.167V91.078h337.734V293.718L378.901,293.718z"/>
	</g>
</g>
<rect x="296.5" y="191.5" fill="#FFFFFF" width="132" height="202"/>
<g>
	<g>
		<path d="M408.233,152.045h-95.275c-16.198,0-29.961,13.208-29.961,29.401v223.257c0,16.193,13.472,29.367,29.67,29.367
			l95.433-0.104c16.195,0,29.445-13.176,29.445-29.371l0.139-223.165C437.682,165.179,424.497,152.045,408.233,152.045z
			 M346.832,169.672h27.642c2.429,0,4.407,1.972,4.407,4.406c0,2.436-1.979,4.406-4.407,4.406h-27.642
			c-2.436,0-4.406-1.971-4.406-4.406C342.426,171.644,344.396,169.672,346.832,169.672z M330.222,171.074
			c1.634-1.63,4.606-1.652,6.236,0c0.817,0.815,1.302,1.961,1.302,3.13c0,1.146-0.484,2.289-1.302,3.106
			c-0.813,0.818-1.962,1.3-3.106,1.3c-1.167,0-2.289-0.481-3.13-1.3c-0.813-0.815-1.276-1.96-1.276-3.106
			C328.943,173.035,329.409,171.89,330.222,171.074z M359.764,425.336c-7.271,0-13.185-5.918-13.185-13.188
			c0-7.271,5.914-13.187,13.185-13.187c7.271,0,13.186,5.916,13.186,13.187C372.949,419.418,367.032,425.336,359.764,425.336z
			 M424.006,389.999H298.42V193.91h125.586V389.999z"/>
	</g>
</g>
</svg>
