<svg height="448pt" viewBox="-32 0 448 448" width="448pt" xmlns="http://www.w3.org/2000/svg"><path d="m88 384v-136c0-13.253906 10.746094-24 24-24h24.390625l7.203125-144h-143.59375l15.609375 304zm0 0"/><path d="m312 248c0-4.417969-3.582031-8-8-8h-192c-4.417969 0-8 3.582031-8 8v48h208zm0 0"/><path d="m104 440c0 4.417969 3.582031 8 8 8h192c4.417969 0 8-3.582031 8-8v-8h-208zm0 0"/><path d="m256 8v88h128v-88c0-4.417969-3.582031-8-8-8h-112c-4.417969 0-8 3.582031-8 8zm0 0"/><path d="m104 312h208v104h-208zm0 0"/><path d="m328 424v16c-.027344 2.730469-.523438 5.4375-1.472656 8h49.472656c4.417969 0 8-3.582031 8-8v-328h-128v112h48c13.253906 0 24 10.746094 24 24zm0 0"/><path d="m88 400h-72v40c0 4.417969 3.582031 8 8 8h65.472656c-.949218-2.5625-1.445312-5.269531-1.472656-8zm0 0"/></svg>